<?xml version="1.0" encoding="iso-8859-1"?>
<!-- Generator: Adobe Illustrator 16.0.0, SVG Export Plug-In . SVG Version: 6.00 Build 0)  -->
<!DOCTYPE svg PUBLIC "-//W3C//DTD SVG 1.1//EN" "http://www.w3.org/Graphics/SVG/1.1/DTD/svg11.dtd">
<svg version="1.1" id="Capa_1" xmlns="http://www.w3.org/2000/svg" xmlns:xlink="http://www.w3.org/1999/xlink" x="0px" y="0px"
	 width="429.151px" height="429.152px" viewBox="0 0 429.151 429.152" style="enable-background:new 0 0 429.151 429.152;"
	 xml:space="preserve">
<g>
	<path d="M214.575,197.901c9.208,0,16.665,7.46,16.665,16.667c0,9.199-7.457,16.665-16.665,16.665
		c-9.203,0-16.667-7.466-16.667-16.665C197.908,205.361,205.372,197.901,214.575,197.901z"/>
	<path d="M214.575,132.201c-45.424,0-82.375,36.951-82.375,82.367c0,45.43,36.95,82.383,82.375,82.383
		c45.422,0,82.375-36.953,82.375-82.383C296.949,169.152,259.997,132.201,214.575,132.201z M214.575,277.066
		c-34.51,0-62.496-27.968-62.496-62.498c0-34.51,27.978-62.5,62.496-62.5c34.522,0,62.498,27.982,62.498,62.5
		C277.072,249.098,249.081,277.066,214.575,277.066z"/>
	<path d="M214.575,0C96.067,0,0.001,96.058,0.001,214.568c0,118.506,96.066,214.584,214.574,214.584
		c118.514,0,214.576-96.078,214.576-214.584C429.15,96.058,333.089,0,214.575,0z M214.575,312.652
		c-54.082,0-98.076-44.014-98.076-98.084c0-54.074,43.994-98.068,98.076-98.068c54.086,0,98.076,43.985,98.076,98.068
		C312.65,268.646,268.661,312.652,214.575,312.652z"/>
</g>
<g>
</g>
<g>
</g>
<g>
</g>
<g>
</g>
<g>
</g>
<g>
</g>
<g>
</g>
<g>
</g>
<g>
</g>
<g>
</g>
<g>
</g>
<g>
</g>
<g>
</g>
<g>
</g>
<g>
</g>
</svg>
